36fcc0a62695bcf93068fcfe68283ee9 *tests/data/fate/copy-trac3074.mp4
334016 tests/data/fate/copy-trac3074.mp4
#tb 0: 1/48000
#media_type 0: audio
#codec_id 0: eac3
#sample_rate 0: 48000
#channel_layout_name 0: stereo
0,          0,          0,     1536,      512, 0x2beaf79f
0,       1536,       1536,     1536,      512, 0x29ddf9d6
0,       3072,       3072,     1536,      512, 0xba0afa79
0,       4608,       4608,     1536,      512, 0xe019f394
0,       6144,       6144,     1536,      512, 0xf501f5ab
0,       7680,       7680,     1536,      512, 0x5ed3f35c
0,       9216,       9216,     1536,      512, 0xb2a5f67b
0,      10752,      10752,     1536,      512, 0xdab3f328
0,      12288,      12288,     1536,      512, 0x490dfa2e
0,      13824,      13824,     1536,      512, 0x26dffa1d
0,      15360,      15360,     1536,      512, 0xa8daf5cd
0,      16896,      16896,     1536,      512, 0x823a01e1
0,      18432,      18432,     1536,      512, 0xf2feee89
0,      19968,      19968,     1536,      512, 0x58f5ebe2
0,      21504,      21504,     1536,      512, 0x8618f679
0,      23040,      23040,     1536,      512, 0xfbe3f0e9
0,      24576,      24576,     1536,      512, 0xadc3f479
0,      26112,      26112,     1536,      512, 0xe85ef861
0,      27648,      27648,     1536,      512, 0x788cf985
0,      29184,      29184,     1536,      512, 0x44cf00c1
0,      30720,      30720,     1536,      512, 0x3398fbf8
0,      32256,      32256,     1536,      512, 0xfbfafc32
0,      33792,      33792,     1536,      512, 0x68fdf9db
0,      35328,      35328,     1536,      512, 0xb848f4fa
0,      36864,      36864,     1536,      512, 0x245af55e
0,      38400,      38400,     1536,      512, 0x5027f295
0,      39936,      39936,     1536,      512, 0x7d74f988
0,      41472,      41472,     1536,      512, 0x7179f92d
0,      43008,      43008,     1536,      512, 0xb2eff797
0,      44544,      44544,     1536,      512, 0x1625f5fa
0,      46080,      46080,     1536,      512, 0x3682f8b4
0,      47616,      47616,     1536,      512, 0xc9e3f9a6
0,      49152,      49152,     1536,      512, 0x1fd50294
0,      50688,      50688,     1536,      512, 0xacd0f967
0,      52224,      52224,     1536,      512, 0xfce1f614
0,      53760,      53760,     1536,      512, 0x8a96f555
0,      55296,      55296,     1536,      512, 0xeb93e8eb
0,      56832,      56832,     1536,      512, 0x3d63f049
0,      58368,      58368,     1536,      512, 0x92ffefa2
0,      59904,      59904,     1536,      512, 0x634ced64
0,      61440,      61440,     1536,      512, 0xf372f256
0,      62976,      62976,     1536,      512, 0xef28ec45
0,      64512,      64512,     1536,      512, 0x0973f647
0,      66048,      66048,     1536,      512, 0x11e1f7d9
0,      67584,      67584,     1536,      512, 0x63ccf4f7
0,      69120,      69120,     1536,      512, 0xa0e4f3c8
0,      70656,      70656,     1536,      512, 0x0ab3f11a
0,      72192,      72192,     1536,      512, 0xcbf8f8a2
0,      73728,      73728,     1536,      512, 0xb102ff6f
0,      75264,      75264,     1536,      512, 0xbfa6ff2f
0,      76800,      76800,     1536,      512, 0xc88301c4
0,      78336,      78336,     1536,      512, 0xab08f52a
0,      79872,      79872,     1536,      512, 0x9401f177
0,      81408,      81408,     1536,      512, 0xd8faf12c
0,      82944,      82944,     1536,      512, 0x9f19f770
0,      84480,      84480,     1536,      512, 0x27eaf637
0,      86016,      86016,     1536,      512, 0xdaa4f256
0,      87552,      87552,     1536,      512, 0x6170f6ef
0,      89088,      89088,     1536,      512, 0xeaf8fee4
0,      90624,      90624,     1536,      512, 0xd438f881
0,      92160,      92160,     1536,      512, 0x9970f701
0,      93696,      93696,     1536,      512, 0x9d9af25c
0,      95232,      95232,     1536,      512, 0xa9ee049e
0,      96768,      96768,     1536,      512, 0xe87af4a7
0,      98304,      98304,     1536,      512, 0x5776f68a
0,      99840,      99840,     1536,      512, 0xce3af291
0,     101376,     101376,     1536,      512, 0x4994f1e9
0,     102912,     102912,     1536,      512, 0x97d8f8e4
0,     104448,     104448,     1536,      512, 0x1b03f2bb
0,     105984,     105984,     1536,      512, 0xa674ede4
0,     107520,     107520,     1536,      512, 0x9607eede
0,     109056,     109056,     1536,      512, 0xf225ed64
0,     110592,     110592,     1536,      512, 0xa59ff1af
0,     112128,     112128,     1536,      512, 0xa73cf082
0,     113664,     113664,     1536,      512, 0xb504f86f
0,     115200,     115200,     1536,      512, 0x3e7cf849
0,     116736,     116736,     1536,      512, 0x2625f150
0,     118272,     118272,     1536,      512, 0x8dc7fa6c
0,     119808,     119808,     1536,      512, 0x4116f6fb
0,     121344,     121344,     1536,      512, 0xfb41f025
0,     122880,     122880,     1536,      512, 0xf2ddf047
0,     124416,     124416,     1536,      512, 0x3e3af43d
0,     125952,     125952,     1536,      512, 0xbd12031c
0,     127488,     127488,     1536,      512, 0x144bfa82
0,     129024,     129024,     1536,      512, 0x4221f8b4
0,     130560,     130560,     1536,      512, 0x95e1f375
0,     132096,     132096,     1536,      512, 0x15a1e638
0,     133632,     133632,     1536,      512, 0x3945f461
0,     135168,     135168,     1536,      512, 0xa95ef996
0,     136704,     136704,     1536,      512, 0x84caee4a
0,     138240,     138240,     1536,      512, 0x0339f13a
0,     139776,     139776,     1536,      512, 0x010c01b5
0,     141312,     141312,     1536,      512, 0xb042eb63
0,     142848,     142848,     1536,      512, 0x1d30f50b
0,     144384,     144384,     1536,      512, 0x8ef1f411
0,     145920,     145920,     1536,      512, 0x1f68f161
0,     147456,     147456,     1536,      512, 0xc2a002e2
0,     148992,     148992,     1536,      512, 0x87bef3a3
0,     150528,     150528,     1536,      512, 0xee24fc34
0,     152064,     152064,     1536,      512, 0x0de2f86f
0,     153600,     153600,     1536,      512, 0xda6ef5c5
0,     155136,     155136,     1536,      512, 0x538ef1b3
0,     156672,     156672,     1536,      512, 0x059befac
0,     158208,     158208,     1536,      512, 0x0fedfa87
0,     159744,     159744,     1536,      512, 0x8f04f38c
0,     161280,     161280,     1536,      512, 0x4195f4fa
0,     162816,     162816,     1536,      512, 0x36e5fa8a
0,     164352,     164352,     1536,      512, 0x27cdf74e
0,     165888,     165888,     1536,      512, 0x0a7dee39
0,     167424,     167424,     1536,      512, 0xb143f9fe
0,     168960,     168960,     1536,      512, 0x57dff4eb
0,     170496,     170496,     1536,      512, 0xbf56ee82
0,     172032,     172032,     1536,      512, 0x8752f6a5
0,     173568,     173568,     1536,      512, 0xa647fd42
0,     175104,     175104,     1536,      512, 0xe8f9eb59
0,     176640,     176640,     1536,      512, 0xba0aeb49
0,     178176,     178176,     1536,      512, 0xaa42f9f6
0,     179712,     179712,     1536,      512, 0xc664ed11
0,     181248,     181248,     1536,      512, 0xbcaaf855
0,     182784,     182784,     1536,      512, 0x2631f9ed
0,     184320,     184320,     1536,      512, 0xc4f8f251
0,     185856,     185856,     1536,      512, 0x1fc2f2af
0,     187392,     187392,     1536,      512, 0xdd2ff3c7
0,     188928,     188928,     1536,      512, 0xb783f7f9
0,     190464,     190464,     1536,      512, 0xf6acf1cb
0,     192000,     192000,     1536,      512, 0x1db2fb58
0,     193536,     193536,     1536,      512, 0x2241e93d
0,     195072,     195072,     1536,      512, 0x619bf1bf
0,     196608,     196608,     1536,      512, 0xe3ddf0ce
0,     198144,     198144,     1536,      512, 0xd94af1be
0,     199680,     199680,     1536,      512, 0xc899f2ab
0,     201216,     201216,     1536,      512, 0xd044f1f7
0,     202752,     202752,     1536,      512, 0xce7507a7
0,     204288,     204288,     1536,      512, 0x2421e95b
0,     205824,     205824,     1536,      512, 0x2c52f48c
0,     207360,     207360,     1536,      512, 0xda31fc4e
0,     208896,     208896,     1536,      512, 0xb8dcfdda
0,     210432,     210432,     1536,      512, 0xccc6f055
0,     211968,     211968,     1536,      512, 0x8c01f9d9
0,     213504,     213504,     1536,      512, 0xcf36ec40
0,     215040,     215040,     1536,      512, 0x5bcafa5c
0,     216576,     216576,     1536,      512, 0xb756f560
0,     218112,     218112,     1536,      512, 0x1849f744
0,     219648,     219648,     1536,      512, 0x9d9bf5ac
0,     221184,     221184,     1536,      512, 0xaea3f847
0,     222720,     222720,     1536,      512, 0xfd84f817
0,     224256,     224256,     1536,      512, 0x5ba0ed29
0,     225792,     225792,     1536,      512, 0xd3b3f400
0,     227328,     227328,     1536,      512, 0x6156f6d9
0,     228864,     228864,     1536,      512, 0xdbc8f4b9
0,     230400,     230400,     1536,      512, 0x4a48fbe3
0,     231936,     231936,     1536,      512, 0x7c3cf3ed
0,     233472,     233472,     1536,      512, 0x078eefa2
0,     235008,     235008,     1536,      512, 0x6b02ec30
0,     236544,     236544,     1536,      512, 0xa0daf283
0,     238080,     238080,     1536,      512, 0x6c33f746
0,     239616,     239616,     1536,      512, 0x38cff4c4
0,     241152,     241152,     1536,      512, 0xe84cf3fe
0,     242688,     242688,     1536,      512, 0x1a4cfda0
0,     244224,     244224,     1536,      512, 0x5590f98b
0,     245760,     245760,     1536,      512, 0xbf90f59b
0,     247296,     247296,     1536,      512, 0x3f14f53c
0,     248832,     248832,     1536,      512, 0x12c2ef31
0,     250368,     250368,     1536,      512, 0xd743f1b0
0,     251904,     251904,     1536,      512, 0x0ee4f04e
0,     253440,     253440,     1536,      512, 0x0c26f820
0,     254976,     254976,     1536,      512, 0x4049eb94
0,     256512,     256512,     1536,      512, 0x89f5f9a2
0,     258048,     258048,     1536,      512, 0x17d6f6b0
0,     259584,     259584,     1536,      512, 0x4d2bf5ae
0,     261120,     261120,     1536,      512, 0x2c20f897
0,     262656,     262656,     1536,      512, 0xe544f11f
0,     264192,     264192,     1536,      512, 0xcaa8f65c
0,     265728,     265728,     1536,      512, 0x1fe6f579
0,     267264,     267264,     1536,      512, 0x0e85f278
0,     268800,     268800,     1536,      512, 0x8eddf38c
0,     270336,     270336,     1536,      512, 0x1ea0f289
0,     271872,     271872,     1536,      512, 0xd76b0034
0,     273408,     273408,     1536,      512, 0xbe49f9d1
0,     274944,     274944,     1536,      512, 0xdc3dfded
0,     276480,     276480,     1536,      512, 0x8143f179
0,     278016,     278016,     1536,      512, 0x6af6f624
0,     279552,     279552,     1536,      512, 0x638cf7c9
0,     281088,     281088,     1536,      512, 0xe1e7f4f1
0,     282624,     282624,     1536,      512, 0xcfbdefd2
0,     284160,     284160,     1536,      512, 0xae49ecfe
0,     285696,     285696,     1536,      512, 0xdfc8ed5f
0,     287232,     287232,     1536,      512, 0xedd9f0b0
0,     288768,     288768,     1536,      512, 0xc192f77b
0,     290304,     290304,     1536,      512, 0x88330350
0,     291840,     291840,     1536,      512, 0x589cfdcc
0,     293376,     293376,     1536,      512, 0x722afae6
0,     294912,     294912,     1536,      512, 0x5ab9f3cf
0,     296448,     296448,     1536,      512, 0x2dc20161
0,     297984,     297984,     1536,      512, 0x5117f4e7
0,     299520,     299520,     1536,      512, 0xaa010049
0,     301056,     301056,     1536,      512, 0xb5fcf73e
0,     302592,     302592,     1536,      512, 0x66afe3ef
0,     304128,     304128,     1536,      512, 0x3d7bf815
0,     305664,     305664,     1536,      512, 0x6895ea7c
0,     307200,     307200,     1536,      512, 0x26bbf14e
0,     308736,     308736,     1536,      512, 0x5856ed50
0,     310272,     310272,     1536,      512, 0x86e4eb6d
0,     311808,     311808,     1536,      512, 0xf68dfbf7
0,     313344,     313344,     1536,      512, 0x201ff70d
0,     314880,     314880,     1536,      512, 0xdd15e87a
0,     316416,     316416,     1536,      512, 0x50e8fa44
0,     317952,     317952,     1536,      512, 0x1442f398
0,     319488,     319488,     1536,      512, 0xe2e9f40b
0,     321024,     321024,     1536,      512, 0xcbfdf354
0,     322560,     322560,     1536,      512, 0x631100f3
0,     324096,     324096,     1536,      512, 0x3aa6f9ea
0,     325632,     325632,     1536,      512, 0xb6c5f5e6
0,     327168,     327168,     1536,      512, 0xe98df623
0,     328704,     328704,     1536,      512, 0x449dfb59
0,     330240,     330240,     1536,      512, 0x4faefbb6
0,     331776,     331776,     1536,      512, 0xcef1eb38
0,     333312,     333312,     1536,      512, 0x94fcfcf5
0,     334848,     334848,     1536,      512, 0x2bcaf97f
0,     336384,     336384,     1536,      512, 0xba8af49c
0,     337920,     337920,     1536,      512, 0xad64fc39
0,     339456,     339456,     1536,      512, 0xb2a2f9fe
0,     340992,     340992,     1536,      512, 0xc96105a3
0,     342528,     342528,     1536,      512, 0x20c2f7ca
0,     344064,     344064,     1536,      512, 0x5ccdfa46
0,     345600,     345600,     1536,      512, 0x95eef21c
0,     347136,     347136,     1536,      512, 0xafa9fad1
0,     348672,     348672,     1536,      512, 0x3134f5cd
0,     350208,     350208,     1536,      512, 0xbb08f702
0,     351744,     351744,     1536,      512, 0x2829f1a0
0,     353280,     353280,     1536,      512, 0x1a16fe88
0,     354816,     354816,     1536,      512, 0x6d87f5cd
0,     356352,     356352,     1536,      512, 0x8170f89a
0,     357888,     357888,     1536,      512, 0xc99df656
0,     359424,     359424,     1536,      512, 0x2015f2f0
0,     360960,     360960,     1536,      512, 0x093df67d
0,     362496,     362496,     1536,      512, 0xaa35ee1a
0,     364032,     364032,     1536,      512, 0xc6caee7e
0,     365568,     365568,     1536,      512, 0xc97bf536
0,     367104,     367104,     1536,      512, 0x7a37f73b
0,     368640,     368640,     1536,      512, 0xa2cdee4d
0,     370176,     370176,     1536,      512, 0xefd5016c
0,     371712,     371712,     1536,      512, 0x562ef6da
0,     373248,     373248,     1536,      512, 0x4203f1ed
0,     374784,     374784,     1536,      512, 0x5ec7f7f0
0,     376320,     376320,     1536,      512, 0x156ff026
0,     377856,     377856,     1536,      512, 0xcba8fc0a
0,     379392,     379392,     1536,      512, 0x420b03c3
0,     380928,     380928,     1536,      512, 0x37f0f2be
0,     382464,     382464,     1536,      512, 0x35d0fc17
0,     384000,     384000,     1536,      512, 0x1d30f537
0,     385536,     385536,     1536,      512, 0x5a84e506
0,     387072,     387072,     1536,      512, 0x2fd8eba5
0,     388608,     388608,     1536,      512, 0x3271f624
0,     390144,     390144,     1536,      512, 0xdcc4ea3b
0,     391680,     391680,     1536,      512, 0x0d76ee13
0,     393216,     393216,     1536,      512, 0xba46f2a5
0,     394752,     394752,     1536,      512, 0xb1540424
0,     396288,     396288,     1536,      512, 0x0c88fae6
0,     397824,     397824,     1536,      512, 0xe879f89b
0,     399360,     399360,     1536,      512, 0xae96f934
0,     400896,     400896,     1536,      512, 0xc17405ec
0,     402432,     402432,     1536,      512, 0x95b8f486
0,     403968,     403968,     1536,      512, 0x03bbf5a9
0,     405504,     405504,     1536,      512, 0x63eaf8d6
0,     407040,     407040,     1536,      512, 0x7a6bfa96
0,     408576,     408576,     1536,      512, 0x2eabee80
0,     410112,     410112,     1536,      512, 0x8693f3c1
0,     411648,     411648,     1536,      512, 0xc8b6f42a
0,     413184,     413184,     1536,      512, 0x9b5bf344
0,     414720,     414720,     1536,      512, 0xda81f513
0,     416256,     416256,     1536,      512, 0x4789fa4d
0,     417792,     417792,     1536,      512, 0xe70aed30
0,     419328,     419328,     1536,      512, 0x0e51f579
0,     420864,     420864,     1536,      512, 0x171503c9
0,     422400,     422400,     1536,      512, 0xc965f98c
0,     423936,     423936,     1536,      512, 0x816ef627
0,     425472,     425472,     1536,      512, 0x441ceb6c
0,     427008,     427008,     1536,      512, 0xedbcf1e5
0,     428544,     428544,     1536,      512, 0x1168fec7
0,     430080,     430080,     1536,      512, 0x488afa1e
0,     431616,     431616,     1536,      512, 0x6d1dec39
0,     433152,     433152,     1536,      512, 0x54c7f611
0,     434688,     434688,     1536,      512, 0x0803eae6
0,     436224,     436224,     1536,      512, 0xcd85eb6d
0,     437760,     437760,     1536,      512, 0x3f920034
0,     439296,     439296,     1536,      512, 0x4b55ea47
0,     440832,     440832,     1536,      512, 0xdfd7f681
0,     442368,     442368,     1536,      512, 0x20ccef96
0,     443904,     443904,     1536,      512, 0x122cf656
0,     445440,     445440,     1536,      512, 0xe38fef19
0,     446976,     446976,     1536,      512, 0xa11ff565
0,     448512,     448512,     1536,      512, 0x931cf83e
0,     450048,     450048,     1536,      512, 0xb854010c
0,     451584,     451584,     1536,      512, 0xf607f233
0,     453120,     453120,     1536,      512, 0xfd9de7e9
0,     454656,     454656,     1536,      512, 0xe401fa53
0,     456192,     456192,     1536,      512, 0x15aef9f2
0,     457728,     457728,     1536,      512, 0x0071f50e
0,     459264,     459264,     1536,      512, 0xa3c7f029
0,     460800,     460800,     1536,      512, 0x9b73ed64
0,     462336,     462336,     1536,      512, 0x0087fbea
0,     463872,     463872,     1536,      512, 0x9871effb
0,     465408,     465408,     1536,      512, 0x0e36ebe3
0,     466944,     466944,     1536,      512, 0x982e015e
0,     468480,     468480,     1536,      512, 0xca67f667
0,     470016,     470016,     1536,      512, 0xc504fd51
0,     471552,     471552,     1536,      512, 0xf5c7f167
0,     473088,     473088,     1536,      512, 0x75aaece8
0,     474624,     474624,     1536,      512, 0x288effcf
0,     476160,     476160,     1536,      512, 0xb640f057
0,     477696,     477696,     1536,      512, 0xbb7cf4a9
0,     479232,     479232,     1536,      512, 0xccf200d6
0,     480768,     480768,     1536,      512, 0x1a00f229
0,     482304,     482304,     1536,      512, 0xa95bf1be
0,     483840,     483840,     1536,      512, 0x3c1af28d
0,     485376,     485376,     1536,      512, 0x11d1ef54
0,     486912,     486912,     1536,      512, 0xf9ae02aa
0,     488448,     488448,     1536,      512, 0x4476ee68
0,     489984,     489984,     1536,      512, 0x7f43eb80
0,     491520,     491520,     1536,      512, 0x245af906
0,     493056,     493056,     1536,      512, 0xbb06f0a8
0,     494592,     494592,     1536,      512, 0xe51bf461
0,     496128,     496128,     1536,      512, 0xd767f7fd
0,     497664,     497664,     1536,      512, 0xd517f1ca
0,     499200,     499200,     1536,      512, 0x3311eb45
0,     500736,     500736,     1536,      512, 0xee0ef61e
0,     502272,     502272,     1536,      512, 0x9e7cfe9b
0,     503808,     503808,     1536,      512, 0x353ef03a
0,     505344,     505344,     1536,      512, 0x92f6fcfa
0,     506880,     506880,     1536,      512, 0xe458f3d0
0,     508416,     508416,     1536,      512, 0xebf3f8af
0,     509952,     509952,     1536,      512, 0xc0f6f981
0,     511488,     511488,     1536,      512, 0x3e31fb6c
0,     513024,     513024,     1536,      512, 0xd679031b
0,     514560,     514560,     1536,      512, 0x6571f361
0,     516096,     516096,     1536,      512, 0xf410f507
0,     517632,     517632,     1536,      512, 0x2217f817
0,     519168,     519168,     1536,      512, 0xaa53f6ee
0,     520704,     520704,     1536,      512, 0xa574fa14
0,     522240,     522240,     1536,      512, 0xcd7ff09d
0,     523776,     523776,     1536,      512, 0xa650f7d6
0,     525312,     525312,     1536,      512, 0x6b4ff467
0,     526848,     526848,     1536,      512, 0x9355f3cb
0,     528384,     528384,     1536,      512, 0x7546eb8b
0,     529920,     529920,     1536,      512, 0x4ac6f4c8
0,     531456,     531456,     1536,      512, 0xcf69f62c
0,     532992,     532992,     1536,      512, 0x93a0e35d
0,     534528,     534528,     1536,      512, 0x60c5f0f5
0,     536064,     536064,     1536,      512, 0x75a4fb42
0,     537600,     537600,     1536,      512, 0x2615ff1f
0,     539136,     539136,     1536,      512, 0xb95df9a2
0,     540672,     540672,     1536,      512, 0xb8c5fafb
0,     542208,     542208,     1536,      512, 0x3465fd2b
0,     543744,     543744,     1536,      512, 0xa758f489
0,     545280,     545280,     1536,      512, 0xe4bafd7f
0,     546816,     546816,     1536,      512, 0xfa45f603
0,     548352,     548352,     1536,      512, 0x875b04f1
0,     549888,     549888,     1536,      512, 0x171bf602
0,     551424,     551424,     1536,      512, 0x557cf2fd
0,     552960,     552960,     1536,      512, 0x3a4303c0
0,     554496,     554496,     1536,      512, 0xbd0feef3
0,     556032,     556032,     1536,      512, 0x3ca3ed7f
0,     557568,     557568,     1536,      512, 0x4a4bf0b3
0,     559104,     559104,     1536,      512, 0xdef5f4a3
0,     560640,     560640,     1536,      512, 0x96a7f939
0,     562176,     562176,     1536,      512, 0x3dc4f2fb
0,     563712,     563712,     1536,      512, 0xa323ec80
0,     565248,     565248,     1536,      512, 0x8b49eebf
0,     566784,     566784,     1536,      512, 0xb4a3f983
0,     568320,     568320,     1536,      512, 0x5a61ecf5
0,     569856,     569856,     1536,      512, 0x10b0dbda
0,     571392,     571392,     1536,      512, 0x4836f474
0,     572928,     572928,     1536,      512, 0xe6f1ee87
0,     574464,     574464,     1536,      512, 0x1e1bf474
0,     576000,     576000,     1536,      512, 0xe25bf263
0,     577536,     577536,     1536,      512, 0x29a9f348
0,     579072,     579072,     1536,      512, 0x8cf6f85d
0,     580608,     580608,     1536,      512, 0x3690f40a
0,     582144,     582144,     1536,      512, 0x072dfcb5
0,     583680,     583680,     1536,      512, 0x9611f8c7
0,     585216,     585216,     1536,      512, 0x3ee7f622
0,     586752,     586752,     1536,      512, 0xdb37f787
0,     588288,     588288,     1536,      512, 0xc09bf2e3
0,     589824,     589824,     1536,      512, 0xae37f9ea
0,     591360,     591360,     1536,      512, 0x2764f6b0
0,     592896,     592896,     1536,      512, 0x871be490
0,     594432,     594432,     1536,      512, 0x2e7cefca
0,     595968,     595968,     1536,      512, 0x000dece5
0,     597504,     597504,     1536,      512, 0xbe9bea16
0,     599040,     599040,     1536,      512, 0x202cf37c
0,     600576,     600576,     1536,      512, 0xae02fa29
0,     602112,     602112,     1536,      512, 0x5eb4efc9
0,     603648,     603648,     1536,      512, 0x7a82ffce
0,     605184,     605184,     1536,      512, 0x4c0fefb2
0,     606720,     606720,     1536,      512, 0x0d55fd52
0,     608256,     608256,     1536,      512, 0x00c8f568
0,     609792,     609792,     1536,      512, 0x9d9ef306
0,     611328,     611328,     1536,      512, 0x53bbf79c
0,     612864,     612864,     1536,      512, 0xf1fbf3f4
0,     614400,     614400,     1536,      512, 0x0ae0ed0b
0,     615936,     615936,     1536,      512, 0x3374ffc1
0,     617472,     617472,     1536,      512, 0xbba1f546
0,     619008,     619008,     1536,      512, 0xaffeee35
0,     620544,     620544,     1536,      512, 0x81dff38d
0,     622080,     622080,     1536,      512, 0x29edeafb
0,     623616,     623616,     1536,      512, 0x406fecbe
0,     625152,     625152,     1536,      512, 0xee28f8dc
0,     626688,     626688,     1536,      512, 0x4b1af28a
0,     628224,     628224,     1536,      512, 0x83ab0058
0,     629760,     629760,     1536,      512, 0x25d0f735
0,     631296,     631296,     1536,      512, 0xec5ff319
0,     632832,     632832,     1536,      512, 0x1723f121
0,     634368,     634368,     1536,      512, 0x266cedd8
0,     635904,     635904,     1536,      512, 0x15b1031a
0,     637440,     637440,     1536,      512, 0x4a83f6b6
0,     638976,     638976,     1536,      512, 0x8cd1fb9f
0,     640512,     640512,     1536,      512, 0x76f4f696
0,     642048,     642048,     1536,      512, 0x9c04fa16
0,     643584,     643584,     1536,      512, 0x5d1600ce
0,     645120,     645120,     1536,      512, 0x40d9f905
0,     646656,     646656,     1536,      512, 0xb9eef26c
0,     648192,     648192,     1536,      512, 0x5557ed03
0,     649728,     649728,     1536,      512, 0xa3b0f348
0,     651264,     651264,     1536,      512, 0xac9ffa65
0,     652800,     652800,     1536,      512, 0xbb49fcf1
0,     654336,     654336,     1536,      512, 0xc324f4da
0,     655872,     655872,     1536,      512, 0xe9d2e875
0,     657408,     657408,     1536,      512, 0x822cef30
0,     658944,     658944,     1536,      512, 0x56f6f7a8
0,     660480,     660480,     1536,      512, 0xf82cf718
0,     662016,     662016,     1536,      512, 0xb75bfaa1
0,     663552,     663552,     1536,      512, 0xdd4dfed6
0,     665088,     665088,     1536,      512, 0x4392f531
0,     666624,     666624,     1536,      512, 0xf50cf9fa
0,     668160,     668160,     1536,      512, 0x1181ead9
0,     669696,     669696,     1536,      512, 0x4925fb83
0,     671232,     671232,     1536,      512, 0x53a7faf8
0,     672768,     672768,     1536,      512, 0x0042f4f9
0,     674304,     674304,     1536,      512, 0x0ed8fa2c
0,     675840,     675840,     1536,      512, 0x9a1ef892
0,     677376,     677376,     1536,      512, 0x4b35ee26
0,     678912,     678912,     1536,      512, 0x6596fc07
0,     680448,     680448,     1536,      512, 0xd3fcf908
0,     681984,     681984,     1536,      512, 0x4f3ce991
0,     683520,     683520,     1536,      512, 0xd8f7fc2a
0,     685056,     685056,     1536,      512, 0x3dd4f26c
0,     686592,     686592,     1536,      512, 0x4f49fc77
0,     688128,     688128,     1536,      512, 0x3e08e521
0,     689664,     689664,     1536,      512, 0xd180f348
0,     691200,     691200,     1536,      512, 0xebeaf520
0,     692736,     692736,     1536,      512, 0xed06f763
0,     694272,     694272,     1536,      512, 0x9766ef09
0,     695808,     695808,     1536,      512, 0xc4a6fc00
0,     697344,     697344,     1536,      512, 0x5547f0ae
0,     698880,     698880,     1536,      512, 0x300cf213
0,     700416,     700416,     1536,      512, 0x35ba0678
0,     701952,     701952,     1536,      512, 0xa8baf485
0,     703488,     703488,     1536,      512, 0xc0cbe8e8
0,     705024,     705024,     1536,      512, 0x081aeed1
0,     706560,     706560,     1536,      512, 0x2017ec33
0,     708096,     708096,     1536,      512, 0x8739f958
0,     709632,     709632,     1536,      512, 0xb797f52e
0,     711168,     711168,     1536,      512, 0x818afdf2
0,     712704,     712704,     1536,      512, 0xbbabf0fe
0,     714240,     714240,     1536,      512, 0x843600db
0,     715776,     715776,     1536,      512, 0x610b02c9
0,     717312,     717312,     1536,      512, 0x0bf8edfe
0,     718848,     718848,     1536,      512, 0x9310edea
0,     720384,     720384,     1536,      512, 0x08c2f355
0,     721920,     721920,     1536,      512, 0x1b23f44c
0,     723456,     723456,     1536,      512, 0x4be9f384
0,     724992,     724992,     1536,      512, 0x5fbef21d
0,     726528,     726528,     1536,      512, 0x7412ef5e
0,     728064,     728064,     1536,      512, 0x9ae7f608
0,     729600,     729600,     1536,      512, 0x0f41f270
0,     731136,     731136,     1536,      512, 0x42c1f982
0,     732672,     732672,     1536,      512, 0x4538f04b
0,     734208,     734208,     1536,      512, 0x09baf2e1
0,     735744,     735744,     1536,      512, 0xed8ff3ba
0,     737280,     737280,     1536,      512, 0xb110f516
0,     738816,     738816,     1536,      512, 0x3837f06a
0,     740352,     740352,     1536,      512, 0x54aef484
0,     741888,     741888,     1536,      512, 0xb047f61d
0,     743424,     743424,     1536,      512, 0xdff4fb98
0,     744960,     744960,     1536,      512, 0x9da60009
0,     746496,     746496,     1536,      512, 0x7bb6f236
0,     748032,     748032,     1536,      512, 0x9f96ea0e
0,     749568,     749568,     1536,      512, 0xc5adf19a
0,     751104,     751104,     1536,      512, 0x2e9cf6f8
0,     752640,     752640,     1536,      512, 0xada8fadc
0,     754176,     754176,     1536,      512, 0x100a07fd
0,     755712,     755712,     1536,      512, 0xa26af433
0,     757248,     757248,     1536,      512, 0xc82cf15e
0,     758784,     758784,     1536,      512, 0x7f88f10d
0,     760320,     760320,     1536,      512, 0x776df377
0,     761856,     761856,     1536,      512, 0x30b0f60d
0,     763392,     763392,     1536,      512, 0xcecbf9a3
0,     764928,     764928,     1536,      512, 0xffa8f5c2
0,     766464,     766464,     1536,      512, 0x9052e7cb
0,     768000,     768000,     1536,      512, 0x0048f2cc
0,     769536,     769536,     1536,      512, 0xc8fff912
0,     771072,     771072,     1536,      512, 0xf22debb8
0,     772608,     772608,     1536,      512, 0x7b4beb82
0,     774144,     774144,     1536,      512, 0x428ff33e
0,     775680,     775680,     1536,      512, 0xb3c1f426
0,     777216,     777216,     1536,      512, 0xb08af561
0,     778752,     778752,     1536,      512, 0xaf62ee68
0,     780288,     780288,     1536,      512, 0xdb25f226
0,     781824,     781824,     1536,      512, 0xa577f9d5
0,     783360,     783360,     1536,      512, 0xd21af205
0,     784896,     784896,     1536,      512, 0x8734f052
0,     786432,     786432,     1536,      512, 0xcb0bf009
0,     787968,     787968,     1536,      512, 0xde0bf8a7
0,     789504,     789504,     1536,      512, 0x9fbefd0d
0,     791040,     791040,     1536,      512, 0xc329ee26
0,     792576,     792576,     1536,      512, 0xfc6007a0
0,     794112,     794112,     1536,      512, 0x6782004b
0,     795648,     795648,     1536,      512, 0x4adbf43c
0,     797184,     797184,     1536,      512, 0x5b85f198
0,     798720,     798720,     1536,      512, 0x1576fbfe
0,     800256,     800256,     1536,      512, 0x62ebf217
0,     801792,     801792,     1536,      512, 0xd8a9f5fe
0,     803328,     803328,     1536,      512, 0x3270f500
0,     804864,     804864,     1536,      512, 0x99e9eca2
0,     806400,     806400,     1536,      512, 0x0d3c02c9
0,     807936,     807936,     1536,      512, 0x8769f484
0,     809472,     809472,     1536,      512, 0xd6cef92a
0,     811008,     811008,     1536,      512, 0x9150f4b7
0,     812544,     812544,     1536,      512, 0x760d00ce
0,     814080,     814080,     1536,      512, 0xc595f17d
0,     815616,     815616,     1536,      512, 0x3720fd55
0,     817152,     817152,     1536,      512, 0x28e5f02b
0,     818688,     818688,     1536,      512, 0x9e87f7bd
0,     820224,     820224,     1536,      512, 0x4571fe9a
0,     821760,     821760,     1536,      512, 0xbf06f83f
0,     823296,     823296,     1536,      512, 0xb6bff67e
0,     824832,     824832,     1536,      512, 0x582cfa1b
0,     826368,     826368,     1536,      512, 0x9277f53b
0,     827904,     827904,     1536,      512, 0xd541fa0e
0,     829440,     829440,     1536,      512, 0xb9f7f791
0,     830976,     830976,     1536,      512, 0xb5ccf6d3
0,     832512,     832512,     1536,      512, 0xb03ef2a1
0,     834048,     834048,     1536,      512, 0x6970fb11
0,     835584,     835584,     1536,      512, 0x478df6bd
0,     837120,     837120,     1536,      512, 0x7ce4eff2
0,     838656,     838656,     1536,      512, 0x5f8af8bb
0,     840192,     840192,     1536,      512, 0xa990f10c
0,     841728,     841728,     1536,      512, 0x0b5e0603
0,     843264,     843264,     1536,      512, 0x5f5ff667
0,     844800,     844800,     1536,      512, 0xf3f1f7e5
0,     846336,     846336,     1536,      512, 0xb7b1f92c
0,     847872,     847872,     1536,      512, 0x5c5afc2d
0,     849408,     849408,     1536,      512, 0xc389ecc8
0,     850944,     850944,     1536,      512, 0x86edf4a8
0,     852480,     852480,     1536,      512, 0x31cfeba8
0,     854016,     854016,     1536,      512, 0xea9cf360
0,     855552,     855552,     1536,      512, 0xbc04f016
0,     857088,     857088,     1536,      512, 0x6617ed55
0,     858624,     858624,     1536,      512, 0xe20afad2
0,     860160,     860160,     1536,      512, 0x4706f61a
0,     861696,     861696,     1536,      512, 0xa6a8fd93
0,     863232,     863232,     1536,      512, 0x9655e7ae
0,     864768,     864768,     1536,      512, 0x0ac2f354
0,     866304,     866304,     1536,      512, 0x62e2f89a
0,     867840,     867840,     1536,      512, 0x35baf1cb
0,     869376,     869376,     1536,      512, 0xc02ff90e
0,     870912,     870912,     1536,      512, 0xf3f8f24b
0,     872448,     872448,     1536,      512, 0x10b9ebd6
0,     873984,     873984,     1536,      512, 0x0482084b
0,     875520,     875520,     1536,      512, 0xc14cee2e
0,     877056,     877056,     1536,      512, 0x21ddf5ea
0,     878592,     878592,     1536,      512, 0x8090f51f
0,     880128,     880128,     1536,      512, 0x6496ed68
0,     881664,     881664,     1536,      512, 0x4bb3fa69
0,     883200,     883200,     1536,      512, 0x1e18e8d7
0,     884736,     884736,     1536,      512, 0xb758fa60
0,     886272,     886272,     1536,      512, 0xa5c6f671
0,     887808,     887808,     1536,      512, 0x6dbcf15e
0,     889344,     889344,     1536,      512, 0x56c4f227
0,     890880,     890880,     1536,      512, 0x17280149
0,     892416,     892416,     1536,      512, 0x8c57f584
0,     893952,     893952,     1536,      512, 0x518ef2b4
0,     895488,     895488,     1536,      512, 0x8a69ebe6
0,     897024,     897024,     1536,      512, 0xf954e97c
0,     898560,     898560,     1536,      512, 0x62e1f8db
0,     900096,     900096,     1536,      512, 0x637af9fa
0,     901632,     901632,     1536,      512, 0xecbcf846
0,     903168,     903168,     1536,      512, 0x2481ecac
0,     904704,     904704,     1536,      512, 0x7d3cf940
0,     906240,     906240,     1536,      512, 0x4823efc4
0,     907776,     907776,     1536,      512, 0x31d5f1ca
0,     909312,     909312,     1536,      512, 0x3024f40f
0,     910848,     910848,     1536,      512, 0xf172f644
0,     912384,     912384,     1536,      512, 0x2502f1b9
0,     913920,     913920,     1536,      512, 0x9ee8f50b
0,     915456,     915456,     1536,      512, 0x0605fcc0
0,     916992,     916992,     1536,      512, 0xf202f11d
0,     918528,     918528,     1536,      512, 0x449df7a2
0,     920064,     920064,     1536,      512, 0x16e8f468
0,     921600,     921600,     1536,      512, 0xceeafba5
0,     923136,     923136,     1536,      512, 0xc8410340
0,     924672,     924672,     1536,      512, 0xc0e5fe5a
0,     926208,     926208,     1536,      512, 0x60cafeb7
0,     927744,     927744,     1536,      512, 0x8277fb6a
0,     929280,     929280,     1536,      512, 0xa77dfac9
0,     930816,     930816,     1536,      512, 0x7b2bf1d1
0,     932352,     932352,     1536,      512, 0x63aafabd
0,     933888,     933888,     1536,      512, 0xf56cf575
0,     935424,     935424,     1536,      512, 0x2048f966
0,     936960,     936960,     1536,      512, 0x392b0c6a
0,     938496,     938496,     1536,      512, 0x7d87f244
0,     940032,     940032,     1536,      512, 0xecbcfedc
0,     941568,     941568,     1536,      512, 0x4780f2ef
0,     943104,     943104,     1536,      512, 0x1a28f8ff
0,     944640,     944640,     1536,      512, 0xda51fcc5
0,     946176,     946176,     1536,      512, 0x7009f7ff
0,     947712,     947712,     1536,      512, 0x1e5af6a2
0,     949248,     949248,     1536,      512, 0xcb83e8c3
0,     950784,     950784,     1536,      512, 0x2cbbe8ae
0,     952320,     952320,     1536,      512, 0x5cc0ebbd
0,     953856,     953856,     1536,      512, 0x5e13f33b
0,     955392,     955392,     1536,      512, 0x2ef1ef3d
0,     956928,     956928,     1536,      512, 0x4aaef05f
0,     958464,     958464,     1536,      512, 0xf6adf321
0,     960000,     960000,     1536,      512, 0x0041e985
0,     961536,     961536,     1536,      512, 0x4539eb83
0,     963072,     963072,     1536,      512, 0xa642f144
0,     964608,     964608,     1536,      512, 0xf58dfb44
0,     966144,     966144,     1536,      512, 0xcdf2f3b2
0,     967680,     967680,     1536,      512, 0xebd9f1d4
0,     969216,     969216,     1536,      512, 0xf39afcca
0,     970752,     970752,     1536,      512, 0x4392fb8e
0,     972288,     972288,     1536,      512, 0xe23df8bb
0,     973824,     973824,     1536,      512, 0xdedaf23a
0,     975360,     975360,     1536,      512, 0x1c46f7bc
0,     976896,     976896,     1536,      512, 0x47e0f873
0,     978432,     978432,     1536,      512, 0x5e55eb42
0,     979968,     979968,     1536,      512, 0x5f08f8a0
0,     981504,     981504,     1536,      512, 0xf391f9f8
0,     983040,     983040,     1536,      512, 0x3d4afcd1
0,     984576,     984576,     1536,      512, 0x07b8f3d4
0,     986112,     986112,     1536,      512, 0xa7cdfea4
0,     987648,     987648,     1536,      512, 0x4072ffda
0,     989184,     989184,     1536,      512, 0xe96df73f
0,     990720,     990720,     1536,      512, 0x6170f3a3
0,     992256,     992256,     1536,      512, 0x743cf509
0,     993792,     993792,     1536,      512, 0x3525fe8e
0,     995328,     995328,     1536,      512, 0xd345ed02
0,     996864,     996864,     1536,      512, 0x3c15f37f
0,     998400,     998400,     1536,      512, 0x9df1facd
